{"glyphs":{":":{"x_min":0,"x_max":250,"ha":250,"o":"m 201 374 l 91 374 l 110 485 l 220 485 z m 139 0 l 29 0 l 47 112 l 158 112 z"},"$":{"x_min":0,"x_max":586,"ha":586,"o":"m 548 536 l 481 503 q 448 577 373 596 l 336 376 q 520 333 520 201 q 520 120 456 62 q 393 5 274 4 l 257 -93 l 198 -93 l 216 12 q 88 39 36 162 l 102 196 q 143 97 227 78 l 266 314 q 102 354 102 477 q 102 550 159 605 q 217 661 325 662 l 339 750 l 398 750 l 383 657 q 499 640 548 536 z m 279 390 l 314 602 q 256 602 216 572 q 176 542 176 491 q 176 412 279 390 z m 323 301 l 285 70 l 300 70 q 359 70 401 104 q 443 139 443 191 q 443 273 323 301 z"},"?":{"x_min":0,"x_max":498,"ha":498,"o":"m 242 170 l 172 170 q 180 245 192 276 q 204 308 223 324 q 243 340 299 367 q 349 390 370 406 q 391 421 405 447 q 419 473 419 504 q 419 558 381 589 q 343 620 292 620 q 182 620 133 486 l 64 514 q 131 686 293 686 q 383 686 442 634 q 501 583 501 504 q 501 466 485 428 q 468 390 436 363 q 404 336 319 302 q 275 285 261 262 q 247 240 242 170 z m 230 0 l 129 0 l 146 96 l 246 96 z"},"<":{"x_min":0,"x_max":586,"ha":586,"o":"m 525 566 l 525 492 l 172 330 l 525 168 l 525 95 l 92 298 l 92 363 z"},"'":{"x_min":0,"x_max":178,"ha":178,"o":"m 139 412 l 94 412 l 122 667 l 196 667 z"},"=":{"x_min":0,"x_max":586,"ha":586,"o":"m 76 455 l 542 455 l 542 387 l 76 387 z m 76 296 l 542 296 l 542 229 l 76 229 z"},"a":{"x_min":0,"x_max":535,"ha":535,"o":"m 428 0 l 351 0 q 350 15 350 25 q 350 63 359 97 q 284 -14 173 -14 q 104 -14 60 28 q 16 71 16 135 q 16 207 79 257 q 143 308 316 308 q 332 308 391 305 q 396 337 396 357 q 396 451 282 451 q 182 451 139 367 l 67 398 q 125 510 277 510 q 361 510 418 473 q 475 437 475 369 q 475 342 437 112 q 427 50 427 21 q 427 17 428 0 z m 381 249 q 346 251 314 251 q 100 251 100 131 q 100 94 123 72 q 146 49 188 49 q 253 49 310 105 q 366 162 381 249 z"},"L":{"x_min":0,"x_max":509,"ha":509,"o":"m 454 0 l 42 0 l 153 667 l 235 667 l 135 71 l 466 71 z"},"3":{"x_min":0,"x_max":586,"ha":586,"o":"m 25 150 l 91 176 q 143 49 271 49 q 339 49 386 89 q 434 129 434 190 q 434 237 405 269 q 377 301 339 308 q 301 315 206 315 l 217 381 q 256 380 281 380 q 393 380 429 420 q 465 460 465 505 q 465 556 426 589 q 387 622 332 622 q 229 622 175 515 l 114 549 q 188 683 334 683 q 430 683 488 630 q 546 578 546 505 q 546 449 509 405 q 471 361 393 345 q 451 331 483 285 q 515 238 515 186 q 515 104 448 43 q 380 -17 272 -17 q 188 -17 120 27 q 51 71 25 150 z"},";":{"x_min":0,"x_max":250,"ha":250,"o":"m 201 374 l 91 374 l 110 485 l 220 485 z m 27 -148 l -12 -148 l 79 0 l 29 0 l 47 112 l 158 112 l 139 0 z"},"J":{"x_min":0,"x_max":369,"ha":369,"o":"m 362 667 l 293 255 q 275 148 254 102 q 233 55 183 22 q 132 -10 59 -10 q 10 -10 -42 0 l -30 68 q 4 61 44 61 q 97 61 130 79 q 164 98 178 129 q 192 160 205 234 l 277 667 z"},"V":{"x_min":0,"x_max":528,"ha":528,"o":"m 271 0 l 197 0 l 65 667 l 154 667 l 259 128 l 518 667 l 595 667 z"},"\"":{"x_min":0,"x_max":309,"ha":309,"o":"m 139 412 l 94 412 l 122 667 l 196 667 z m 271 412 l 225 412 l 253 667 l 328 667 z"},"7":{"x_min":0,"x_max":586,"ha":586,"o":"m 251 -8 l 163 -8 q 193 343 488 594 l 111 594 l 133 667 l 589 667 l 580 612 q 392 431 327 288 q 263 144 251 -8 z"},"S":{"x_min":0,"x_max":572,"ha":572,"o":"m 544 527 l 474 500 q 455 556 409 589 q 363 622 304 622 q 231 622 195 587 q 159 552 159 505 q 159 474 175 451 q 191 429 217 418 q 242 407 311 390 q 400 367 438 349 q 476 331 502 291 q 529 250 529 195 q 529 101 460 43 q 391 -14 276 -14 q 61 -14 4 171 l 77 198 q 122 53 276 53 q 359 53 403 93 q 447 133 447 186 q 447 218 431 242 q 415 267 390 278 q 365 290 309 303 q 223 324 177 345 q 130 367 103 406 q 77 444 77 497 q 77 577 137 631 q 197 685 297 685 q 480 685 544 527 z"},"}":{"x_min":0,"x_max":293,"ha":293,"o":"m 174 250 q 127 273 127 329 q 127 340 131 363 l 158 525 q 162 548 162 561 q 162 589 146 602 q 129 614 82 615 l 90 667 l 107 667 q 179 667 204 642 q 229 618 229 573 q 229 552 225 524 l 198 364 q 194 343 194 333 q 194 285 240 273 l 232 225 q 172 210 160 138 l 131 -36 q 119 -107 80 -137 q 42 -167 -28 -167 l -49 -167 l -41 -115 q 14 -113 36 -95 q 58 -77 65 -28 l 94 141 q 108 227 174 250 z"},"Z":{"x_min":0,"x_max":525,"ha":525,"o":"m 547 667 l 538 611 l 96 71 l 472 71 l 460 0 l -18 0 l -6 71 l 427 599 l 93 599 l 104 667 z"},"x":{"x_min":0,"x_max":436,"ha":436,"o":"m 396 0 l 310 0 l 207 204 l 46 0 l -31 0 l 174 256 l 50 495 l 137 495 l 227 318 l 364 495 l 438 495 l 257 265 z"},")":{"x_min":0,"x_max":293,"ha":293,"o":"m 118 667 l 165 667 q 255 529 255 343 q 255 65 25 -167 l -31 -167 q 75 -51 132 90 q 188 231 188 372 q 188 530 118 667 z"},"&":{"x_min":0,"x_max":667,"ha":667,"o":"m 587 -9 q 549 -18 525 -18 q 505 -18 479 -9 q 452 0 418 44 q 356 3 320 -8 q 283 -20 245 -20 q 154 -20 93 39 q 31 97 31 177 q 31 225 56 271 q 81 316 122 342 q 164 368 245 396 q 196 485 196 545 q 196 602 240 644 q 284 686 357 686 q 426 686 469 646 q 513 605 513 545 q 513 493 480 451 q 447 409 335 363 l 441 146 q 529 236 580 363 l 639 340 q 579 193 472 89 q 498 45 536 45 q 553 45 596 53 z m 315 414 q 388 444 416 475 q 445 506 445 546 q 445 582 419 605 q 394 628 356 628 q 316 628 292 602 q 268 577 268 537 q 268 500 315 414 z m 386 99 l 269 345 q 115 289 115 180 q 115 125 153 83 q 192 42 254 42 q 320 42 386 99 z"},"_":{"x_min":0,"x_max":500,"ha":500,"o":"m 15 -66 l 515 -66 l 515 -133 l 15 -133 z"},"v":{"x_min":0,"x_max":444,"ha":444,"o":"m 218 0 l 148 0 l 47 495 l 129 495 l 204 107 l 398 495 l 467 495 z"},"O":{"x_min":0,"x_max":642,"ha":642,"o":"m 307 -13 q 192 -13 124 69 q 55 151 55 286 q 55 437 140 559 q 225 680 365 680 q 477 680 547 603 q 617 526 617 391 q 617 231 534 109 q 450 -13 307 -13 z m 307 54 q 383 54 437 112 q 490 169 511 258 q 532 347 532 408 q 532 504 484 559 q 437 613 362 613 q 256 613 198 506 q 140 399 140 269 q 140 165 187 109 q 234 54 307 54 z"},"(":{"x_min":0,"x_max":293,"ha":293,"o":"m 179 -167 l 133 -167 q 42 -28 42 157 q 42 434 272 667 l 328 667 q 223 551 166 410 q 109 268 109 127 q 109 -31 179 -167 z"},"C":{"x_min":0,"x_max":576,"ha":576,"o":"m 589 461 l 517 443 q 505 541 462 578 q 418 616 361 616 q 294 616 246 570 q 198 524 168 434 q 139 343 139 264 q 139 164 183 110 q 227 56 298 56 q 412 56 478 213 l 546 188 q 471 -11 296 -11 q 180 -11 116 71 q 53 153 53 280 q 53 432 138 557 q 224 683 358 683 q 445 683 510 630 q 575 578 589 461 z"},"W":{"x_min":0,"x_max":812,"ha":812,"o":"m 593 0 l 511 0 l 447 532 l 233 0 l 146 0 l 81 667 l 163 667 l 216 116 l 441 667 l 503 667 l 572 116 l 794 667 l 863 667 z"},"A":{"x_min":0,"x_max":564,"ha":564,"o":"m 387 195 l 144 195 l 48 0 l -28 0 l 299 667 l 391 667 l 507 0 l 421 0 z m 377 262 l 326 568 l 175 262 z"},"f":{"x_min":0,"x_max":300,"ha":300,"o":"m 329 495 l 319 435 l 199 435 l 126 0 l 50 0 l 123 435 l 31 435 l 42 495 l 133 495 q 148 594 197 638 q 246 682 335 682 q 355 682 381 679 l 371 618 q 349 621 335 621 q 274 621 245 588 q 216 556 209 495 z"},"Q":{"x_min":0,"x_max":639,"ha":639,"o":"m 344 -10 q 342 -28 342 -37 q 342 -98 418 -98 q 431 -98 504 -90 l 494 -152 q 437 -161 403 -161 q 345 -161 312 -133 q 279 -105 279 -50 q 279 -37 282 -13 q 166 2 110 84 q 54 166 54 278 q 54 436 139 558 q 225 680 364 680 q 476 680 545 601 q 615 522 615 390 q 615 245 540 124 q 465 2 344 -10 z m 306 53 q 408 53 468 152 q 527 251 527 416 q 527 498 484 555 q 442 613 363 613 q 253 613 198 503 q 143 393 143 258 q 143 163 188 108 q 233 53 306 53 z"},"w":{"x_min":0,"x_max":674,"ha":674,"o":"m 468 0 l 412 0 l 350 377 l 192 0 l 130 0 l 54 495 l 129 495 l 184 123 l 340 495 l 403 495 l 462 123 l 625 495 l 690 495 z"},"-":{"x_min":0,"x_max":250,"ha":250,"o":"m 232 221 l 10 221 l 19 277 l 241 277 z"},"E":{"x_min":0,"x_max":559,"ha":559,"o":"m 42 0 l 153 667 l 569 667 l 558 600 l 224 600 l 187 381 l 473 381 l 462 315 l 176 315 l 135 71 l 496 71 l 484 0 z"},"s":{"x_min":0,"x_max":461,"ha":461,"o":"m 418 389 l 355 362 q 322 445 225 445 q 181 445 154 422 q 127 399 127 368 q 127 336 148 322 q 168 307 229 293 l 260 286 q 312 274 340 260 q 368 246 388 216 q 407 185 407 146 q 407 80 355 34 q 303 -13 213 -13 q 149 -13 93 12 q 36 37 -4 122 l 66 146 q 102 48 216 48 q 271 48 301 73 q 331 97 331 134 q 331 163 313 179 q 295 196 233 211 l 208 217 q 150 231 120 245 q 89 260 69 289 q 48 318 48 356 q 48 417 96 461 q 144 505 226 505 q 375 505 418 389 z"},">":{"x_min":0,"x_max":586,"ha":586,"o":"m 92 95 l 92 169 l 445 331 l 92 492 l 92 566 l 525 362 l 525 298 z"},"l":{"x_min":0,"x_max":229,"ha":229,"o":"m 223 667 l 111 0 l 35 0 l 146 667 z"},"8":{"x_min":0,"x_max":586,"ha":586,"o":"m 401 356 q 534 298 534 188 q 534 104 466 45 q 397 -13 284 -13 q 178 -13 107 35 q 37 83 37 167 q 37 298 210 346 q 106 399 106 496 q 106 573 167 627 q 228 681 334 681 q 425 681 487 637 q 549 594 549 521 q 549 402 401 356 z m 321 385 q 397 411 435 439 q 473 467 473 512 q 473 561 433 591 q 394 620 331 620 q 268 620 226 590 q 185 560 185 508 q 185 431 321 385 z m 292 315 q 115 271 115 170 q 115 112 162 81 q 209 50 283 50 q 364 50 408 87 q 453 124 453 174 q 453 208 429 240 q 405 272 292 315 z"},"\\":{"x_min":0,"x_max":469,"ha":469,"o":"m 396 -167 l 113 667 l 168 667 l 451 -167 z"},"e":{"x_min":0,"x_max":520,"ha":520,"o":"m 458 116 q 382 -14 244 -14 q 151 -14 92 47 q 33 108 33 212 q 33 340 106 425 q 180 511 288 511 q 341 511 387 488 q 434 465 459 416 q 485 367 485 297 q 485 272 480 241 l 116 241 q 113 217 113 202 q 113 134 148 92 q 184 50 245 50 q 287 50 321 69 q 355 87 394 146 z m 125 297 l 407 297 q 408 312 408 320 q 408 380 374 416 q 339 452 285 452 q 223 452 179 406 q 136 360 125 297 z"},"b":{"x_min":0,"x_max":538,"ha":538,"o":"m 68 0 l 35 0 l 146 667 l 223 667 l 182 416 q 245 507 334 507 q 413 507 458 450 q 502 393 502 297 q 502 177 437 82 q 371 -13 267 -13 q 164 -13 113 88 z m 265 46 q 337 46 380 126 q 422 206 422 311 q 422 375 394 411 q 365 446 320 446 q 247 446 196 363 q 146 279 146 189 q 146 122 181 84 q 216 46 265 46 z"},"%":{"x_min":0,"x_max":773,"ha":773,"o":"m 214 332 q 152 332 114 377 q 76 422 76 485 q 76 561 123 621 q 170 680 244 680 q 307 680 345 635 q 384 589 384 526 q 384 452 336 392 q 287 332 214 332 z m 220 381 q 267 381 295 427 q 323 473 323 543 q 323 581 301 606 q 279 631 242 631 q 189 631 163 580 q 138 529 138 477 q 138 437 160 409 q 182 381 220 381 z m 172 0 l 108 0 l 629 667 l 691 667 z m 562 -11 q 493 -11 455 35 q 417 82 417 146 q 417 217 466 278 q 515 339 584 339 q 646 339 686 294 q 726 249 726 183 q 726 107 678 48 q 631 -11 562 -11 z m 559 37 q 605 37 635 80 q 664 122 664 199 q 664 248 638 269 q 613 290 583 290 q 536 290 507 244 q 479 199 479 137 q 479 87 502 62 q 525 37 559 37 z"},"m":{"x_min":0,"x_max":817,"ha":817,"o":"m 699 0 l 623 0 l 670 286 q 678 334 678 357 q 678 403 654 424 q 629 445 596 445 q 548 445 504 391 q 460 336 441 222 l 404 0 l 327 0 l 375 284 q 384 340 384 361 q 384 402 362 425 q 339 447 306 447 q 280 447 254 430 q 227 414 203 376 q 179 337 170 303 q 161 270 145 178 l 113 0 l 35 0 l 118 495 l 190 495 l 178 413 q 245 507 327 507 q 427 507 457 400 q 525 508 618 508 q 678 508 717 471 q 756 435 756 372 q 756 346 750 304 z"},"#":{"x_min":0,"x_max":586,"ha":586,"o":"m 577 471 l 563 411 l 461 411 l 430 271 l 533 271 l 520 211 l 417 211 l 370 0 l 306 0 l 353 211 l 211 211 l 165 0 l 101 0 l 148 211 l 42 211 l 55 271 l 162 271 l 192 411 l 85 411 l 99 471 l 206 471 l 249 667 l 312 667 l 269 471 l 410 471 l 453 667 l 517 667 l 473 471 z m 396 411 l 256 411 l 225 271 l 366 271 z"},",":{"x_min":0,"x_max":250,"ha":250,"o":"m 27 -148 l -12 -148 l 80 0 l 29 0 l 47 112 l 158 112 l 139 0 z"},"n":{"x_min":0,"x_max":548,"ha":548,"o":"m 430 0 l 357 0 l 405 285 q 413 333 413 355 q 413 394 389 421 q 365 448 320 448 q 265 448 215 395 q 165 341 137 177 l 106 0 l 35 0 l 118 495 l 184 495 l 166 384 q 229 509 339 509 q 404 509 445 469 q 486 429 486 365 q 486 335 478 286 z"},"h":{"x_min":0,"x_max":544,"ha":544,"o":"m 223 667 l 179 403 q 246 509 344 509 q 404 509 444 472 q 485 436 485 372 q 485 348 478 304 l 426 0 l 351 0 l 402 304 q 408 338 408 365 q 408 405 384 427 q 361 449 325 449 q 269 449 217 387 q 166 326 145 203 l 111 0 l 35 0 l 146 667 z"},"z":{"x_min":0,"x_max":419,"ha":419,"o":"m 358 0 l -18 0 l -9 52 l 317 433 l 63 433 l 74 495 l 430 495 l 421 445 l 91 62 l 368 62 z"},"B":{"x_min":0,"x_max":611,"ha":611,"o":"m 42 0 l 153 667 l 362 667 q 442 667 482 655 q 522 644 553 604 q 584 564 584 509 q 584 389 454 349 q 502 333 531 293 q 560 252 560 196 q 560 146 539 104 q 518 62 485 40 q 453 17 421 9 q 389 0 303 0 z m 187 379 l 313 379 q 388 379 423 390 q 459 401 481 432 q 504 463 504 506 q 504 542 485 566 q 467 590 440 597 q 413 603 352 603 l 224 602 z m 134 66 l 279 66 q 365 66 399 76 q 434 86 457 120 q 479 153 479 205 q 479 248 459 274 q 439 300 411 308 q 382 316 311 316 l 176 316 z"},"K":{"x_min":0,"x_max":623,"ha":623,"o":"m 630 667 l 405 434 l 563 0 l 478 0 l 343 376 l 154 182 l 124 0 l 42 0 l 153 667 l 235 667 l 171 287 l 538 667 z"},"R":{"x_min":0,"x_max":633,"ha":633,"o":"m 369 292 l 172 292 l 124 0 l 42 0 l 153 667 l 362 667 q 456 667 502 647 q 548 627 576 585 q 603 543 603 489 q 603 421 560 370 q 518 318 448 307 l 542 0 l 456 0 z m 183 359 l 336 359 q 520 359 520 491 q 520 602 376 602 l 224 602 z"},"T":{"x_min":0,"x_max":488,"ha":488,"o":"m 537 599 l 344 599 l 243 0 l 162 0 l 262 599 l 69 599 l 80 667 l 548 667 z"},"P":{"x_min":0,"x_max":557,"ha":557,"o":"m 168 270 l 124 0 l 42 0 l 153 667 l 336 667 q 417 667 463 652 q 509 638 541 589 q 573 540 573 482 q 573 406 517 338 q 461 270 303 270 z m 180 336 l 271 336 q 356 336 394 345 q 432 354 460 391 q 488 428 488 480 q 488 521 471 550 q 454 579 427 590 q 400 601 334 601 l 224 600 z"},"|":{"x_min":0,"x_max":500,"ha":500,"o":"m 228 667 l 303 667 l 303 -167 l 228 -167 z"},"t":{"x_min":0,"x_max":307,"ha":307,"o":"m 187 436 l 142 167 q 134 122 134 106 q 134 51 197 51 q 219 51 264 56 l 256 -5 q 256 -5 242 -6 q 202 -11 183 -11 q 60 -11 60 98 q 60 126 72 201 l 111 436 l 36 436 l 46 495 l 123 495 l 143 615 l 218 622 l 197 495 l 310 495 l 299 436 z"},"M":{"x_min":0,"x_max":815,"ha":815,"o":"m 690 0 l 609 0 l 712 612 l 392 0 l 330 0 l 211 602 l 110 0 l 42 0 l 153 667 l 277 667 l 386 121 l 671 667 l 802 667 z"},"g":{"x_min":0,"x_max":503,"ha":503,"o":"m 517 526 q 489 528 477 528 q 409 528 392 465 q 457 415 457 343 q 457 269 403 216 q 349 163 261 163 q 212 163 166 183 q 102 155 102 117 q 102 97 121 91 q 140 84 208 83 q 312 82 355 74 q 399 67 427 37 q 455 7 455 -38 q 455 -109 398 -149 q 341 -190 222 -190 q -24 -190 -24 -72 q -24 2 67 36 q 28 57 28 99 q 28 169 130 209 q 75 250 75 324 q 75 398 130 448 q 186 499 273 499 q 307 499 352 485 q 373 552 406 573 q 439 595 486 595 q 504 595 527 590 z m 258 218 q 312 218 346 250 q 379 283 379 338 q 379 385 348 413 q 317 441 270 441 q 218 441 185 408 q 152 375 152 324 q 152 277 180 248 q 208 218 258 218 z m 114 14 q 50 -5 50 -54 q 50 -95 103 -114 q 156 -133 235 -133 q 382 -133 382 -53 q 382 -30 362 -13 q 341 3 248 4 q 164 5 114 14 z"},"j":{"x_min":0,"x_max":229,"ha":229,"o":"m 220 576 l 121 576 l 136 667 l 235 667 z m 193 495 l 116 32 q 103 -47 89 -83 q 75 -120 37 -146 q -1 -171 -54 -171 q -81 -171 -121 -166 l -111 -106 q -77 -110 -59 -110 q -24 -110 -5 -95 q 15 -80 21 -59 q 28 -39 40 32 l 118 495 z"},"i":{"x_min":0,"x_max":229,"ha":229,"o":"m 221 576 l 122 576 l 137 667 l 236 667 z m 112 0 l 36 0 l 119 495 l 195 495 z"},"y":{"x_min":0,"x_max":425,"ha":425,"o":"m 459 495 l 188 -27 q 138 -124 94 -149 q 50 -174 1 -174 q -20 -174 -48 -170 l -37 -104 q -12 -109 5 -109 q 84 -109 126 -21 l 144 14 l 40 495 l 118 495 l 198 119 l 393 495 z"},"@":{"x_min":0,"x_max":747,"ha":747,"o":"m 558 508 l 521 281 q 516 250 516 231 q 516 200 549 200 q 589 200 624 253 q 659 306 659 378 q 659 489 579 556 q 499 624 389 624 q 308 624 246 584 q 183 544 148 478 q 112 411 112 333 q 112 214 190 129 q 268 45 411 45 q 517 45 618 100 l 642 46 q 529 -13 408 -13 q 242 -13 146 87 q 51 187 51 330 q 51 477 149 578 q 247 680 396 680 q 525 680 621 602 q 717 524 717 386 q 717 287 667 214 q 616 141 549 141 q 483 141 462 203 q 415 139 354 139 q 292 139 249 187 q 206 236 206 315 q 206 400 256 458 q 307 516 379 516 q 450 516 489 456 l 497 508 z m 362 200 q 406 200 438 246 q 470 292 470 348 q 470 396 444 426 q 419 455 382 455 q 338 455 308 414 q 278 374 278 315 q 278 264 302 232 q 326 200 362 200 z"},".":{"x_min":0,"x_max":250,"ha":250,"o":"m 139 0 l 29 0 l 47 112 l 158 112 z"},"p":{"x_min":0,"x_max":536,"ha":536,"o":"m 83 -167 l 7 -167 l 118 493 l 188 493 l 173 392 q 242 504 339 504 q 407 504 454 448 q 500 393 500 293 q 500 176 435 82 q 370 -13 271 -13 q 176 -13 124 72 z m 259 49 q 340 49 379 130 q 417 211 417 306 q 417 373 387 407 q 356 441 312 441 q 250 441 197 363 q 145 285 145 186 q 145 124 176 86 q 207 49 259 49 z"},"X":{"x_min":0,"x_max":539,"ha":539,"o":"m 494 0 l 400 0 l 268 280 l 45 0 l -39 0 l 234 342 l 79 667 l 170 667 l 291 409 l 496 667 l 581 667 l 325 349 z"},"*":{"x_min":0,"x_max":586,"ha":586,"o":"m 337 667 l 395 667 l 363 497 l 534 552 l 542 498 l 371 448 l 451 312 l 398 278 l 325 418 l 204 278 l 163 312 l 289 448 l 134 498 l 161 552 l 312 496 z"},"Y":{"x_min":0,"x_max":512,"ha":512,"o":"m 260 0 l 176 0 l 222 279 l 52 667 l 142 667 l 280 351 l 511 667 l 593 667 l 306 279 z"},"c":{"x_min":0,"x_max":474,"ha":474,"o":"m 459 337 l 384 321 q 377 380 345 412 q 314 444 271 444 q 194 444 156 365 q 117 287 117 195 q 117 124 149 88 q 181 51 230 51 q 318 51 367 170 l 429 147 q 405 71 349 28 q 293 -16 222 -16 q 131 -16 83 56 q 36 128 36 215 q 36 326 101 418 q 167 511 273 511 q 348 511 400 462 q 452 414 459 337 z"},"!":{"x_min":0,"x_max":267,"ha":267,"o":"m 145 171 l 103 171 l 147 667 l 257 667 z m 143 0 l 42 0 l 58 95 l 159 95 z"},"/":{"x_min":0,"x_max":469,"ha":469,"o":"m -57 -167 l -121 -167 l 441 667 l 506 667 z"},"[":{"x_min":0,"x_max":293,"ha":293,"o":"m 184 -167 l 3 -167 l 143 667 l 324 667 l 316 622 l 204 622 l 80 -122 l 192 -122 z"},"6":{"x_min":0,"x_max":586,"ha":586,"o":"m 509 513 q 464 618 368 618 q 199 618 141 320 q 206 441 333 441 q 422 441 484 379 q 546 316 546 225 q 546 131 479 58 q 413 -15 305 -15 q 196 -15 128 60 q 59 135 59 268 q 59 417 142 550 q 224 684 365 684 q 529 684 582 533 z m 302 51 q 370 51 419 102 q 467 152 467 229 q 467 286 425 330 q 383 374 320 374 q 255 374 203 325 q 150 277 150 204 q 150 139 195 95 q 239 51 302 51 z"},"r":{"x_min":0,"x_max":339,"ha":339,"o":"m 111 0 l 35 0 l 118 495 l 194 495 l 170 366 q 210 441 253 475 q 296 509 355 509 q 363 509 372 509 l 359 431 l 341 431 q 295 431 267 414 q 238 397 215 366 q 191 334 171 288 q 151 242 130 111 z"},"2":{"x_min":0,"x_max":586,"ha":586,"o":"m 490 0 l 16 0 l 30 83 q 195 183 302 262 q 409 342 442 389 q 474 437 474 484 q 474 543 432 582 q 390 620 327 620 q 280 620 235 592 q 189 563 153 466 l 86 491 q 153 688 329 688 q 425 688 491 627 q 557 567 557 480 q 557 376 458 292 q 358 208 117 71 l 502 71 z"},"{":{"x_min":0,"x_max":293,"ha":293,"o":"m 121 250 q 167 227 167 171 q 167 160 163 137 l 136 -25 q 132 -49 132 -61 q 132 -89 148 -102 q 165 -114 212 -115 l 204 -167 l 188 -167 q 115 -167 90 -142 q 65 -118 65 -73 q 65 -52 69 -24 l 96 136 q 100 157 100 167 q 100 215 54 227 l 62 275 q 122 289 134 362 l 163 536 q 175 607 214 637 q 253 667 323 667 l 343 667 l 334 615 q 280 613 258 595 q 236 577 229 528 l 200 359 q 186 274 121 250 z"},"9":{"x_min":0,"x_max":586,"ha":586,"o":"m 101 146 q 147 47 247 47 q 326 47 385 115 q 443 183 471 350 q 405 231 280 231 q 194 231 134 294 q 73 356 73 447 q 73 545 143 614 q 213 683 316 683 q 421 683 487 610 q 552 537 552 405 q 552 240 468 113 q 384 -15 239 -15 q 168 -15 113 20 q 59 56 35 114 z m 295 297 q 360 297 413 345 q 465 394 465 472 q 465 530 424 574 q 382 619 317 619 q 249 619 200 570 q 150 521 150 451 q 150 384 194 341 q 237 297 295 297 z"}," ":{"x_min":0,"x_max":250,"ha":250,"o":""},"I":{"x_min":0,"x_max":248,"ha":248,"o":"m 235 667 l 124 0 l 42 0 l 153 667 z"},"H":{"x_min":0,"x_max":656,"ha":656,"o":"m 503 315 l 176 315 l 124 0 l 42 0 l 153 667 l 235 667 l 188 386 l 515 386 l 562 667 l 643 667 l 531 0 l 450 0 z"},"4":{"x_min":0,"x_max":586,"ha":586,"o":"m 398 0 l 320 0 l 347 161 l 27 161 l 39 228 l 416 686 l 513 686 l 437 228 l 546 228 l 535 161 l 425 161 z m 358 228 l 420 603 l 110 228 z"},"~":{"x_min":0,"x_max":586,"ha":586,"o":"m 68 286 q 121 402 206 402 q 247 402 317 368 q 383 336 414 336 q 468 336 498 393 q 504 405 510 405 q 522 405 549 377 q 494 264 412 264 q 372 264 288 304 q 233 329 199 329 q 149 329 118 268 q 112 256 107 256 q 96 256 68 286 z"},"D":{"x_min":0,"x_max":648,"ha":648,"o":"m 42 0 l 153 667 l 338 667 q 437 667 492 635 q 548 603 584 536 q 621 470 621 374 q 621 246 567 157 q 514 69 452 34 q 390 0 288 0 z m 135 68 l 269 67 q 339 67 381 82 q 422 97 457 132 q 491 167 515 234 q 539 301 539 380 q 539 452 515 505 q 491 557 446 581 q 402 604 328 604 l 224 603 z"},"^":{"x_min":0,"x_max":500,"ha":500,"o":"m 491 364 l 410 364 l 265 609 l 121 364 l 40 364 l 216 668 l 314 668 z"},"0":{"x_min":0,"x_max":586,"ha":586,"o":"m 271 -21 q 173 -21 112 58 q 51 137 51 271 q 51 428 132 558 q 213 688 341 688 q 442 688 504 608 q 565 527 565 399 q 565 236 482 107 q 399 -21 271 -21 z m 276 40 q 374 40 427 159 q 481 278 481 414 q 481 532 440 579 q 399 626 338 626 q 240 626 186 503 q 132 380 132 250 q 132 135 174 87 q 216 40 276 40 z"},"F":{"x_min":0,"x_max":507,"ha":507,"o":"m 176 313 l 124 0 l 42 0 l 153 667 l 561 667 l 550 599 l 224 599 l 187 379 l 468 379 l 457 313 z"},"`":{"x_min":0,"x_max":500,"ha":500,"o":"m 188 662 l 218 721 l 398 609 l 377 570 z"},"k":{"x_min":0,"x_max":490,"ha":490,"o":"m 111 0 l 35 0 l 146 667 l 223 667 l 152 246 l 416 495 l 505 495 l 315 318 l 438 0 l 357 0 l 253 267 l 137 151 z"},"u":{"x_min":0,"x_max":542,"ha":542,"o":"m 510 495 l 427 0 l 360 0 l 380 120 q 314 -13 200 -13 q 156 -13 124 8 q 92 28 78 57 q 63 85 63 128 q 63 156 74 218 l 122 495 l 198 495 l 147 194 q 139 143 139 131 q 139 93 161 71 q 184 49 220 49 q 282 49 334 116 q 386 184 407 305 l 438 495 z"},"]":{"x_min":0,"x_max":293,"ha":293,"o":"m 110 667 l 292 667 l 152 -167 l -29 -167 l -21 -122 l 90 -122 l 214 622 l 103 622 z"},"U":{"x_min":0,"x_max":615,"ha":615,"o":"m 612 667 l 544 260 q 526 150 499 98 q 472 46 417 16 q 363 -15 287 -15 q 194 -15 131 30 q 67 75 67 173 q 67 203 83 298 l 145 667 l 226 667 l 161 280 q 147 200 147 177 q 147 118 188 85 q 228 53 289 53 q 344 53 384 75 q 423 97 443 134 q 462 172 476 253 l 545 667 z"},"o":{"x_min":0,"x_max":521,"ha":521,"o":"m 236 -15 q 144 -15 90 50 q 37 114 37 214 q 37 327 107 417 q 177 507 286 507 q 376 507 430 445 q 484 383 484 277 q 484 167 415 76 q 346 -15 236 -15 z m 239 47 q 318 47 360 125 q 403 202 403 303 q 403 379 367 413 q 331 447 282 447 q 204 447 162 370 q 119 292 119 196 q 119 123 152 85 q 185 47 239 47 z"},"N":{"x_min":0,"x_max":655,"ha":655,"o":"m 530 0 l 465 0 l 204 570 l 108 0 l 42 0 l 153 667 l 245 667 l 487 135 l 576 667 l 642 667 z"},"+":{"x_min":0,"x_max":586,"ha":586,"o":"m 74 368 l 271 368 l 271 573 l 344 573 l 344 368 l 541 368 l 541 300 l 344 300 l 344 95 l 271 95 l 271 300 l 74 300 z"},"G":{"x_min":0,"x_max":651,"ha":651,"o":"m 343 333 l 596 333 l 539 -8 l 494 -8 l 483 73 q 426 -17 306 -17 q 195 -17 125 67 q 55 150 55 284 q 55 439 140 561 q 226 683 366 683 q 547 683 612 495 l 540 469 q 494 619 366 619 q 261 619 200 515 q 140 411 140 275 q 140 167 189 108 q 239 49 314 49 q 387 49 438 103 q 490 157 506 268 l 332 268 z"},"q":{"x_min":0,"x_max":533,"ha":533,"o":"m 498 495 l 387 -167 l 311 -167 l 354 94 q 292 -15 198 -15 q 131 -15 83 39 q 34 92 34 191 q 34 316 104 411 q 174 505 270 505 q 369 505 419 412 l 463 495 z m 219 47 q 288 47 338 135 q 389 223 389 311 q 389 372 355 409 q 322 446 273 446 q 199 446 157 364 q 115 282 115 183 q 115 118 145 83 q 175 47 219 47 z"},"d":{"x_min":0,"x_max":538,"ha":538,"o":"m 420 0 l 350 0 l 369 98 q 302 -13 199 -13 q 120 -13 77 46 q 35 105 35 195 q 35 308 99 407 q 164 507 271 507 q 372 507 414 414 l 457 667 l 531 667 z m 219 47 q 293 47 343 127 q 393 208 393 312 q 393 375 357 411 q 321 447 274 447 q 200 447 157 364 q 115 281 115 184 q 115 118 144 83 q 172 47 219 47 z"},"1":{"x_min":0,"x_max":586,"ha":586,"o":"m 529 0 l 52 0 l 62 64 l 257 64 l 343 577 q 316 539 258 517 q 199 495 146 495 l 157 561 q 320 583 383 683 l 439 683 l 336 64 l 540 64 z"},"5":{"x_min":0,"x_max":586,"ha":586,"o":"m 37 140 l 102 169 q 161 53 274 53 q 354 53 403 107 q 451 161 451 232 q 451 298 408 343 q 365 388 299 388 q 210 388 154 296 l 84 318 l 163 667 l 555 667 l 532 596 l 215 596 l 166 376 q 224 451 313 451 q 401 451 466 390 q 530 329 530 234 q 530 137 461 62 q 391 -12 274 -12 q 193 -12 129 29 q 66 70 37 140 z"}}}
